<?xml version="1.0" encoding="UTF-8"?>
<svg id="Layer_2" data-name="Layer 2" xmlns="http://www.w3.org/2000/svg" xmlns:xlink="http://www.w3.org/1999/xlink" viewBox="0 0 276.94 65.52">
  <defs>
    <linearGradient id="linear-gradient" x1="65.92" y1="38.39" x2="-2.38" y2="26.81" gradientUnits="userSpaceOnUse">
      <stop offset="0" stop-color="#2e3035"/>
      <stop offset=".13" stop-color="#2e3646"/>
      <stop offset=".4" stop-color="#304872"/>
      <stop offset=".75" stop-color="#3463b7"/>
      <stop offset="1" stop-color="#e3fd71"/>
    </linearGradient>
  </defs>
  <g id="Layer_1-2" data-name="Layer 1">
    <g>
      <path fill="url(#linear-gradient)" d="M39.37,58.78c0,1.8-.7,3.5-1.98,4.77-1.27,1.27-2.97,1.98-4.77,1.98-3.72,0-6.75-3.03-6.75-6.75,0-1.8.7-3.5,1.98-4.77,1.27-1.27,2.97-1.98,4.77-1.98,3.72,0,6.75,3.03,6.75,6.75ZM49.97,22.06c1.38,0,2.68-.54,3.65-1.51.98-.98,1.51-2.27,1.51-3.65s-.54-2.67-1.51-3.65c-.98-.98-2.27-1.51-3.65-1.51s-2.67.54-3.65,1.51c-2.01,2.01-2.01,5.29,0,7.3.98.98,2.27,1.51,3.65,1.51ZM57.16,28.6c-1.51,0-2.92.59-3.99,1.65-1.06,1.07-1.65,2.48-1.65,3.99,0,1.51.59,2.92,1.65,3.99,1.07,1.07,2.48,1.65,3.99,1.65,3.11,0,5.64-2.53,5.64-5.64,0-3.11-2.53-5.64-5.64-5.64ZM49.97,45.42c-1.65,0-3.2.64-4.36,1.81-2.41,2.41-2.41,6.32,0,8.72,1.16,1.17,2.71,1.81,4.36,1.81s3.2-.64,4.36-1.81c1.17-1.17,1.81-2.71,1.81-4.36s-.64-3.2-1.81-4.36c-1.16-1.16-2.71-1.81-4.36-1.81ZM32.62,0c-4.52,0-8.46,3.12-9.45,7.49-.02.1-.06.29-.08.38,0,.02-.01.07-.02.09-.08.41-.28.77-.58,1.07-.4.4-.93.62-1.5.62-.34,0-.69-.07-.98-.24-.04-.03-.18-.11-.25-.15-1.35-.81-2.92-1.23-4.5-1.23-2.36,0-4.59.92-6.26,2.59-3.28,3.28-3.48,8.6-.42,12.07,0,0,.02.03.03.04.7.84.62,2.09-.16,2.87-.28.28-.64.49-1.04.57-.09.02-.25.03-.35.04-.1,0-.12.01-.21.02C2.95,26.85,0,30.28,0,34.24c0,4.39,3.43,7.93,7.82,8.08.1,0,.11,0,.23,0,.14,0,.19,0,.26,0,.6.04,1.11.29,1.53.72.95.96.98,2.48.06,3.47-.06.06-.16.19-.22.25-2.54,2.93-2.41,7.28.36,10.05,1.39,1.4,3.25,2.16,5.22,2.16s3.83-.77,5.22-2.16c2.88-2.88,2.88-7.56,0-10.44-1.28-1.28-2.98-2.04-4.79-2.15-.1,0-.21,0-.31-.01-.02,0-.07,0-.1,0-.57-.04-1.08-.31-1.49-.72-.91-.91-.86-2.59-.09-3.44.05-.06.11-.11.13-.13,2.52-2.6,2.33-5.68,2.33-5.68,0-2.81-1.45-4.66-1.65-4.89-.03-.03-.15-.17-.27-.38-.06-.1-.25-.45-.3-.87-.08-.59.14-1.28.62-1.77.33-.33.75-.57,1.22-.61.06,0,.26-.02.35-.03,2.04-.17,3.95-1.1,5.39-2.55,1.14-1.14,1.92-2.56,2.33-4.11,0-.03.03-.1.04-.13.1-.36.29-.7.55-.96.4-.4.93-.62,1.5-.62.35,0,.7.06.99.25.09.06.18.12.26.18.04.02.11.07.15.1,1.57,1.02,3.4,1.56,5.27,1.56,2.59,0,5.03-1.01,6.86-2.84,1.83-1.83,2.84-4.27,2.84-6.86,0-2.59-1.01-5.03-2.84-6.86C37.65,1.01,35.22,0,32.62,0Z"/>
      <g>
        <path fill="#2e3035" d="M104.7,21.98c-2.44-1.34-5.35-2.02-8.65-2.02s-6.48.71-9.08,2.12c-2.6,1.41-4.66,3.39-6.11,5.89-1.45,2.5-2.18,5.44-2.18,8.75s.73,6.2,2.18,8.72c1.45,2.52,3.53,4.52,6.18,5.92,2.64,1.4,5.77,2.12,9.32,2.12,3.98,0,7.28-.91,9.83-2.69,2.55-1.79,4.37-4.27,5.42-7.39l.16-.47h-9.45l-.1.2c-.5,1.03-1.25,1.79-2.24,2.24-1.02.47-2.26.71-3.69.71-2.56,0-4.5-.75-5.76-2.23-.83-.97-1.39-2.31-1.68-3.98h23.28l.05-.3c.08-.5.15-1.04.19-1.61.04-.57.06-1.19.06-1.85,0-3.22-.68-6.07-2.03-8.47-1.35-2.4-3.27-4.3-5.71-5.65ZM89.03,33.01c.32-1.35.83-2.46,1.52-3.31,1.26-1.55,3.07-2.34,5.38-2.34,1.99,0,3.58.58,4.73,1.72.89.9,1.44,2.22,1.64,3.93h-13.27Z"/>
        <path fill="#2e3035" d="M139.62,7.09c-.66-.08-1.43-.13-2.3-.13-4.12,0-7.28,1.01-9.4,3.01-2.13,2-3.21,4.98-3.21,8.86v1.74h-5.26v7.77h5.26v24.5h10v-24.5h6.43v-7.77h-6.43v-1.62c0-1.3.34-2.29,1.01-2.96.67-.67,1.75-1.01,3.21-1.01.56,0,1.04.03,1.43.09.38.06.7.14.96.25l.5.21v-7.92l-.25-.08c-.64-.21-1.29-.36-1.95-.45Z"/>
        <path fill="#2e3035" d="M169.38,7.09c-.66-.08-1.43-.13-2.3-.13-4.12,0-7.28,1.01-9.4,3.01-2.13,2-3.21,4.98-3.21,8.86v1.74h-5.26v7.77h5.26v24.5h10v-24.5h6.43v-7.77h-6.43v-1.62c0-1.3.34-2.29,1.01-2.96.67-.67,1.75-1.01,3.21-1.01.56,0,1.04.03,1.43.09.38.06.7.14.96.25l.5.21v-7.92l-.25-.08c-.64-.21-1.29-.36-1.95-.45Z"/>
        <polygon fill="#2e3035" points="181.24 6.34 180.88 6.34 180.88 6.7 180.88 16.72 180.88 17.08 181.24 17.08 191.14 17.08 191.5 17.08 191.5 16.72 191.5 6.7 191.5 6.34 191.14 6.34 181.24 6.34"/>
        <polygon fill="#2e3035" points="181.55 20.57 181.19 20.57 181.19 20.93 181.19 52.48 181.19 52.84 181.55 52.84 190.83 52.84 191.19 52.84 191.19 52.48 191.19 20.93 191.19 20.57 190.83 20.57 181.55 20.57"/>
        <polygon fill="#2e3035" points="223.23 36.27 234.8 21.15 235.24 20.57 234.51 20.57 224.37 20.57 224.18 20.57 224.07 20.72 218.19 29.14 212.54 20.73 212.43 20.57 212.24 20.57 201.85 20.57 201.12 20.57 201.56 21.15 212.78 35.94 200.26 52.26 199.82 52.84 200.55 52.84 210.63 52.84 210.82 52.84 210.92 52.69 217.8 43.02 224.31 52.68 224.42 52.84 224.61 52.84 235.01 52.84 235.73 52.84 235.29 52.27 223.23 36.27"/>
        <polygon fill="#2e3035" points="276.4 20.57 266.5 20.57 266.25 20.57 266.16 20.81 259.41 39.21 252.92 20.81 252.83 20.57 252.58 20.57 242.55 20.57 242.03 20.57 242.22 21.06 253.98 51.06 247.67 65.02 247.44 65.52 248 65.52 257.28 65.52 257.52 65.52 257.61 65.31 276.73 21.07 276.94 20.57 276.4 20.57"/>
      </g>
    </g>
  </g>
</svg>
